<mxfile host="Electron" modified="2024-02-04T10:58:45.759Z" agent="Mozilla/5.0 (Windows NT 10.0; Win64; x64) AppleWebKit/537.36 (KHTML, like Gecko) draw.io/22.0.3 Chrome/114.0.5735.289 Electron/25.8.4 Safari/537.36" etag="wGoZF8QI7j2xXDhPJCP5" version="22.0.3" type="device">
  <diagram name="Pagina-1" id="fgEIDOo5GtxxUQLo1sm6">
    <mxGraphModel dx="1290" dy="621" grid="1" gridSize="10" guides="1" tooltips="1" connect="1" arrows="1" fold="1" page="1" pageScale="1" pageWidth="827" pageHeight="1169" math="0" shadow="0">
      <root>
        <mxCell id="0" />
        <mxCell id="1" parent="0" />
        <mxCell id="p7SyDIi_kHGNF9VmyP0l-3" value="Magna Carta&lt;br&gt;&lt;br&gt;- Written in 1215 by King John of England&lt;br&gt;- First form of Constitution&lt;br&gt;- Started a discussion guaranteeing rights to life, to liberty, not to be tortured&lt;br&gt;" style="rounded=0;whiteSpace=wrap;html=1;" vertex="1" parent="1">
          <mxGeometry x="150" y="220" width="230" height="110" as="geometry" />
        </mxCell>
        <mxCell id="p7SyDIi_kHGNF9VmyP0l-5" value="Human Rights" style="ellipse;whiteSpace=wrap;html=1;" vertex="1" parent="1">
          <mxGeometry x="205" y="110" width="120" height="80" as="geometry" />
        </mxCell>
        <mxCell id="p7SyDIi_kHGNF9VmyP0l-6" value="Universal Declaration of Rights of Men&lt;br&gt;- Written in 1948&lt;br&gt;- Fundamental rights: life, liberty, nationality&lt;br&gt;- Human organizations: Amnesty International - Human Rights Watch" style="rounded=0;whiteSpace=wrap;html=1;" vertex="1" parent="1">
          <mxGeometry x="125" y="370" width="280" height="110" as="geometry" />
        </mxCell>
        <mxCell id="p7SyDIi_kHGNF9VmyP0l-7" value="Types of law" style="ellipse;whiteSpace=wrap;html=1;" vertex="1" parent="1">
          <mxGeometry x="550" y="110" width="120" height="80" as="geometry" />
        </mxCell>
        <mxCell id="p7SyDIi_kHGNF9VmyP0l-8" value="Civil law&lt;br&gt;&lt;br&gt;- Sets of codified laws&lt;br&gt;- An article dedicated for every single procedure&lt;br&gt;- Binding of lawas" style="rounded=0;whiteSpace=wrap;html=1;" vertex="1" parent="1">
          <mxGeometry x="450" y="210" width="140" height="90" as="geometry" />
        </mxCell>
        <mxCell id="p7SyDIi_kHGNF9VmyP0l-9" value="Common law&lt;br&gt;&lt;br&gt;- Based on previous cases checking if crimes were committed before&lt;br&gt;- Not always a written constitution" style="rounded=0;whiteSpace=wrap;html=1;" vertex="1" parent="1">
          <mxGeometry x="660" y="200" width="150" height="120" as="geometry" />
        </mxCell>
        <mxCell id="p7SyDIi_kHGNF9VmyP0l-10" value="" style="endArrow=none;html=1;rounded=0;entryX=0;entryY=0.5;entryDx=0;entryDy=0;exitX=0.438;exitY=-0.021;exitDx=0;exitDy=0;exitPerimeter=0;" edge="1" parent="1" source="p7SyDIi_kHGNF9VmyP0l-8" target="p7SyDIi_kHGNF9VmyP0l-7">
          <mxGeometry width="50" height="50" relative="1" as="geometry">
            <mxPoint x="580" y="250" as="sourcePoint" />
            <mxPoint x="630" y="200" as="targetPoint" />
          </mxGeometry>
        </mxCell>
        <mxCell id="p7SyDIi_kHGNF9VmyP0l-11" value="" style="endArrow=none;html=1;rounded=0;entryX=1;entryY=0.5;entryDx=0;entryDy=0;exitX=0.5;exitY=0;exitDx=0;exitDy=0;" edge="1" parent="1" source="p7SyDIi_kHGNF9VmyP0l-9" target="p7SyDIi_kHGNF9VmyP0l-7">
          <mxGeometry width="50" height="50" relative="1" as="geometry">
            <mxPoint x="543" y="209" as="sourcePoint" />
            <mxPoint x="560" y="160" as="targetPoint" />
          </mxGeometry>
        </mxCell>
        <mxCell id="p7SyDIi_kHGNF9VmyP0l-12" value="" style="endArrow=none;html=1;rounded=0;entryX=0.5;entryY=1;entryDx=0;entryDy=0;exitX=0.5;exitY=0;exitDx=0;exitDy=0;" edge="1" parent="1" source="p7SyDIi_kHGNF9VmyP0l-3" target="p7SyDIi_kHGNF9VmyP0l-5">
          <mxGeometry width="50" height="50" relative="1" as="geometry">
            <mxPoint x="240" y="330" as="sourcePoint" />
            <mxPoint x="290" y="280" as="targetPoint" />
          </mxGeometry>
        </mxCell>
        <mxCell id="p7SyDIi_kHGNF9VmyP0l-13" value="" style="endArrow=none;html=1;rounded=0;entryX=0.5;entryY=1;entryDx=0;entryDy=0;exitX=0.5;exitY=0;exitDx=0;exitDy=0;" edge="1" parent="1" source="p7SyDIi_kHGNF9VmyP0l-6" target="p7SyDIi_kHGNF9VmyP0l-3">
          <mxGeometry width="50" height="50" relative="1" as="geometry">
            <mxPoint x="240" y="450" as="sourcePoint" />
            <mxPoint x="290" y="400" as="targetPoint" />
          </mxGeometry>
        </mxCell>
        <mxCell id="p7SyDIi_kHGNF9VmyP0l-14" value="Case study&lt;br&gt;&lt;br&gt;- Singapore: death penalty and a very strict legal system" style="rounded=1;whiteSpace=wrap;html=1;" vertex="1" parent="1">
          <mxGeometry x="510" y="330" width="200" height="110" as="geometry" />
        </mxCell>
        <mxCell id="p7SyDIi_kHGNF9VmyP0l-15" value="Young people&#39;s rights and duties" style="ellipse;whiteSpace=wrap;html=1;" vertex="1" parent="1">
          <mxGeometry x="344" y="530" width="140" height="80" as="geometry" />
        </mxCell>
        <mxCell id="p7SyDIi_kHGNF9VmyP0l-16" value="Age of drinking&lt;br&gt;&lt;br&gt;(In legal systems: Between 18 up to 21/23)&lt;br&gt;&lt;br&gt;- Some cultures are more used to drinking from 18 up to different ages&lt;br&gt;- Most Europian countries allow drinking at any age but only allowed by parents&lt;br&gt;- Some eastern and Arab countries prohibit drinking at all" style="rounded=0;whiteSpace=wrap;html=1;" vertex="1" parent="1">
          <mxGeometry x="110" y="610" width="235" height="180" as="geometry" />
        </mxCell>
        <mxCell id="p7SyDIi_kHGNF9VmyP0l-18" value="Age of driving&lt;br&gt;&lt;br&gt;(In legal systems: Between 17-18 up to 20/23)&lt;br style=&quot;border-color: var(--border-color);&quot;&gt;&lt;br style=&quot;border-color: var(--border-color);&quot;&gt;- Discussions of getting driver license at age of 16 in Europe&lt;br style=&quot;border-color: var(--border-color);&quot;&gt;- Some say that you are not mature enough to have at 18" style="rounded=0;whiteSpace=wrap;html=1;" vertex="1" parent="1">
          <mxGeometry x="530" y="610" width="210" height="150" as="geometry" />
        </mxCell>
        <mxCell id="p7SyDIi_kHGNF9VmyP0l-19" value="" style="endArrow=none;html=1;rounded=0;exitX=0.463;exitY=-0.007;exitDx=0;exitDy=0;exitPerimeter=0;entryX=0;entryY=0.5;entryDx=0;entryDy=0;" edge="1" parent="1" source="p7SyDIi_kHGNF9VmyP0l-16" target="p7SyDIi_kHGNF9VmyP0l-15">
          <mxGeometry width="50" height="50" relative="1" as="geometry">
            <mxPoint x="420" y="690" as="sourcePoint" />
            <mxPoint x="470" y="640" as="targetPoint" />
          </mxGeometry>
        </mxCell>
        <mxCell id="p7SyDIi_kHGNF9VmyP0l-20" value="" style="endArrow=none;html=1;rounded=0;exitX=0.526;exitY=0.004;exitDx=0;exitDy=0;exitPerimeter=0;entryX=1;entryY=0.5;entryDx=0;entryDy=0;" edge="1" parent="1" source="p7SyDIi_kHGNF9VmyP0l-18" target="p7SyDIi_kHGNF9VmyP0l-15">
          <mxGeometry width="50" height="50" relative="1" as="geometry">
            <mxPoint x="229" y="619" as="sourcePoint" />
            <mxPoint x="370" y="580" as="targetPoint" />
          </mxGeometry>
        </mxCell>
        <mxCell id="p7SyDIi_kHGNF9VmyP0l-21" value="Prohibition in the USA" style="ellipse;whiteSpace=wrap;html=1;" vertex="1" parent="1">
          <mxGeometry x="350" y="810" width="140" height="80" as="geometry" />
        </mxCell>
        <mxCell id="p7SyDIi_kHGNF9VmyP0l-22" value="Welfare state&lt;br&gt;(Stato sociale)" style="ellipse;whiteSpace=wrap;html=1;" vertex="1" parent="1">
          <mxGeometry x="325" y="1150" width="140" height="80" as="geometry" />
        </mxCell>
        <mxCell id="p7SyDIi_kHGNF9VmyP0l-23" value="UK&lt;br&gt;&lt;br&gt;- Begain in early 1800s&lt;br&gt;- First form of government protecting citizen rights and social conditions&lt;br&gt;- Guarantee of equal opportunities by the system&lt;br&gt;- Problems: minor working, so many work hours, no good human working conditions&lt;br&gt;- Free froms oh healthcare from 1950s to 1960s&lt;br&gt;- Social housing from 1980s from Thatcher" style="rounded=0;whiteSpace=wrap;html=1;" vertex="1" parent="1">
          <mxGeometry x="100" y="1280" width="235" height="180" as="geometry" />
        </mxCell>
        <mxCell id="p7SyDIi_kHGNF9VmyP0l-24" value="USA&lt;br&gt;&lt;br&gt;- Various programs to increase education, medical aids and help to people&lt;br&gt;- No free insurance in health&lt;br&gt;- Many expenditures and good results&lt;br&gt;- Many inequalities between people inside society" style="rounded=0;whiteSpace=wrap;html=1;" vertex="1" parent="1">
          <mxGeometry x="435" y="1280" width="235" height="180" as="geometry" />
        </mxCell>
        <mxCell id="p7SyDIi_kHGNF9VmyP0l-25" value="- Started from 18th Century religious movements to avoid society corruption&lt;br&gt;- Law in the USA to avoid legal drinking (liquor/alcoholic)&lt;br&gt;- Increases bootleg (illegal selling) and crimes" style="rounded=0;whiteSpace=wrap;html=1;" vertex="1" parent="1">
          <mxGeometry x="302.5" y="920" width="235" height="180" as="geometry" />
        </mxCell>
        <mxCell id="p7SyDIi_kHGNF9VmyP0l-26" value="" style="endArrow=none;html=1;rounded=0;entryX=0.5;entryY=1;entryDx=0;entryDy=0;exitX=0.5;exitY=0;exitDx=0;exitDy=0;" edge="1" parent="1" source="p7SyDIi_kHGNF9VmyP0l-25" target="p7SyDIi_kHGNF9VmyP0l-21">
          <mxGeometry width="50" height="50" relative="1" as="geometry">
            <mxPoint x="340" y="960" as="sourcePoint" />
            <mxPoint x="390" y="910" as="targetPoint" />
          </mxGeometry>
        </mxCell>
        <mxCell id="p7SyDIi_kHGNF9VmyP0l-27" value="" style="endArrow=none;html=1;rounded=0;entryX=0;entryY=0.5;entryDx=0;entryDy=0;exitX=0.5;exitY=0;exitDx=0;exitDy=0;" edge="1" parent="1" source="p7SyDIi_kHGNF9VmyP0l-23" target="p7SyDIi_kHGNF9VmyP0l-22">
          <mxGeometry width="50" height="50" relative="1" as="geometry">
            <mxPoint x="270" y="1260" as="sourcePoint" />
            <mxPoint x="430" y="1270" as="targetPoint" />
          </mxGeometry>
        </mxCell>
        <mxCell id="p7SyDIi_kHGNF9VmyP0l-28" value="" style="endArrow=none;html=1;rounded=0;entryX=1;entryY=0.5;entryDx=0;entryDy=0;exitX=0.521;exitY=-0.017;exitDx=0;exitDy=0;exitPerimeter=0;" edge="1" parent="1" source="p7SyDIi_kHGNF9VmyP0l-24" target="p7SyDIi_kHGNF9VmyP0l-22">
          <mxGeometry width="50" height="50" relative="1" as="geometry">
            <mxPoint x="520" y="1260" as="sourcePoint" />
            <mxPoint x="335" y="1200" as="targetPoint" />
          </mxGeometry>
        </mxCell>
      </root>
    </mxGraphModel>
  </diagram>
</mxfile>
